# xmcd
#
# Track frame offsets: 
#        150
#        12572
#        26377
#        39745
#        53832
#        68585
#        79087
#        93935
#        107895
#        121377
#        135622
#        150082
#        163297
#        175112
#        189130
#        201827
#        213775
#        225792
#        236585
#        248925
#        263330
#        276787
#        289050
#        300525
#
# Disc length: 4188 seconds
#
# Revision: 7
# Processed by: cddbd v1.5.2PL0 Copyright (c) Steve Scherf et al.
# Submitted via: ExactAudioCopy v1.3
#
DISCID=33105a18
DTITLE=Louis Armstrong - Louis Armstrong - A Portrait of  - CD 1-2 - 
DYEAR=1997
DGENRE=Jazz
TTITLE0=When The Saints Go Marching In
TTITLE1=Red Sails In The Sunset
TTITLE2=Ain't Misbehavin'
TTITLE3=What Is That Thing Called Swing?
TTITLE4=Lazy Bones
TTITLE5=In The Shade Of The Old Apple Tree
TTITLE6=Rockin' Chair
TTITLE7=Sweet As A Song
TTITLE8=The Flat Foot Floogie
TTITLE9=Once In A While
TTITLE10=Nobody Knows The Trouble I've Seen
TTITLE11=I've Got A Pocketful Of Dreams
TTITLE12=It's Wonderful
TTITLE13=Hear Me Talkin' To Ya
TTITLE14=Naturally
TTITLE15=Thanks A Million
TTITLE16=Mexican Swing
TTITLE17=The Old Folks At Home
TTITLE18=So Little Time (So Much To Do)
TTITLE19=The Song Is Ended
TTITLE20=Save Is, Pretty Mama
TTITLE21=My Walking Stick
TTITLE22=Something Tells Me
TTITLE23=All Of Me
EXTD=
EXTT0=
EXTT1=
EXTT2=
EXTT3=
EXTT4=
EXTT5=
EXTT6=
EXTT7=
EXTT8=
EXTT9=
EXTT10=
EXTT11=
EXTT12=
EXTT13=
EXTT14=
EXTT15=
EXTT16=
EXTT17=
EXTT18=
EXTT19=
EXTT20=
EXTT21=
EXTT22=
EXTT23=
PLAYORDER=
